<?xml version="1.0" encoding="UTF-8"?>
<svg width="22px" height="22px" viewBox="0 0 22 22" version="1.1" xmlns="http://www.w3.org/2000/svg" xmlns:xlink="http://www.w3.org/1999/xlink">
    <!-- Generator: sketchtool 52.5 (67469) - http://www.bohemiancoding.com/sketch -->
    <title>A46CD394-9E84-499B-B5AD-5873F847C544</title>
    <desc>Created with sketchtool.</desc>
    <g id="第一期" stroke="none" stroke-width="1" fill="none" fill-rule="evenodd">
        <g id="所有文档" transform="translate(-322.000000, -529.000000)">
            <g id="最热文档" transform="translate(304.000000, 440.000000)">
                <g id="Group-12" transform="translate(18.000000, 69.000000)">
                    <polygon id="Rectangle" points="2 0 896 0 896 122 2 122"></polygon>
                    <g id="Group-8" transform="translate(2.000000, 20.000000)">
                        <path d="M2,0 L13.8,0 L18,3.85 L18,20 C18,21.1045695 17.1045695,22 16,22 L2,22 C0.8954305,22 1.3527075e-16,21.1045695 0,20 L0,2 C-1.3527075e-16,0.8954305 0.8954305,2.02906125e-16 2,0 Z" id="Rectangle" fill="#DAF1D7"></path>
                        <rect id="Rectangle" fill="#4CBF3D" x="2" y="8" width="6" height="2"></rect>
                        <rect id="Rectangle" fill="#4CBF3D" x="10" y="8" width="6" height="2"></rect>
                        <rect id="Rectangle" fill="#4CBF3D" x="2" y="12" width="6" height="2"></rect>
                        <rect id="Rectangle" fill="#4CBF3D" x="10" y="12" width="6" height="2"></rect>
                        <rect id="Rectangle" fill="#4CBF3D" x="2" y="16" width="6" height="2"></rect>
                        <rect id="Rectangle" fill="#4CBF3D" x="10" y="16" width="6" height="2"></rect>
                    </g>
                </g>
            </g>
        </g>
    </g>
</svg>