<?xml version="1.0" encoding="UTF-8"?>
<svg width="167px" height="40px" viewBox="0 0 167 40" version="1.1" xmlns="http://www.w3.org/2000/svg" xmlns:xlink="http://www.w3.org/1999/xlink">
    <!-- Generator: Sketch 52.6 (67491) - http://www.bohemiancoding.com/sketch -->
    <title>Group 2</title>
    <desc>Created with Sketch.</desc>
    <g id="人事星球VI" stroke="none" stroke-width="1" fill="none" fill-rule="evenodd">
        <g id="Artboard" transform="translate(-226.000000, -222.000000)">
            <g id="Group-2" transform="translate(226.000000, 222.000000)">
                <g id="Combined-Shape-2" fill="#963FB1">
                    <path d="M20,40 C8.954305,40 0,31.045695 0,20 C0,8.954305 8.954305,0 20,0 C31.045695,0 40,8.954305 40,20 C40,31.045695 31.045695,40 20,40 Z M13.7415837,17.5129179 C13.8404917,18.7616315 13.3585756,19.9862775 12.4351982,20.8327068 L5.35409399,27.3237189 C5.18852386,27.4754915 5.10886839,27.6994133 5.14139133,27.9216534 C5.19560853,28.2921376 5.53989708,28.5485227 5.91038132,28.4943055 L15.6060626,27.0754253 C16.8777726,26.8893214 18.16263,27.3151724 19.0714427,28.2239851 L25.7480441,34.9005865 C25.9153496,35.067892 26.1577749,35.1358719 26.3876769,35.0799498 C26.7514987,34.9914526 26.9746935,34.6247755 26.8861963,34.2609537 L25.0323656,26.6396501 C24.6520225,25.0760172 25.2292212,23.4351492 26.5047325,22.4539868 L35.7956257,15.3071458 C35.9785777,15.1664135 36.0773599,14.942269 36.0577865,14.7122822 C36.0260349,14.3392006 35.6978527,14.0624979 35.324771,14.0942496 L24.0100574,15.0572039 C22.575402,15.1793022 21.1830874,14.533887 20.3491209,13.3601563 L13.9647997,4.37481541 C13.8266259,4.18034857 13.5964144,4.0728123 13.3586024,4.0916489 C12.9853411,4.12121414 12.7067205,4.44776956 12.7362857,4.82103083 L13.7415837,17.5129179 Z M24.7457627,10.8474576 C26.4306992,10.8474576 27.7966102,9.48154669 27.7966102,7.79661017 C27.7966102,6.11167364 26.4306992,4.74576271 24.7457627,4.74576271 C23.0608262,4.74576271 21.6949153,6.11167364 21.6949153,7.79661017 C21.6949153,9.48154669 23.0608262,10.8474576 24.7457627,10.8474576 Z" id="Combined-Shape"></path>
                </g>
                <g id="Group" transform="translate(45.000000, 5.000000)" fill="#565656">
                    <g>
                        <path d="M28.0041682,25.6553026 C27.3147074,25.1185486 26.3671461,24.2648785 25.1594398,23.0901833 C23.9517336,21.9175426 22.9545965,20.7110017 22.1659842,19.4726151 C21.377883,18.2337148 20.7011996,17.0579923 20.1379781,15.9449339 C19.5737345,14.8313619 19.1198863,13.8133269 18.7754115,12.8903154 C18.4314477,11.9678176 18.0644849,10.7186445 17.6755453,9.14382353 C17.2860945,7.57002984 17.0515041,6.11077792 16.9722851,4.76658142 L16.8976659,2.22457587 C16.8772223,1.87324595 16.8230467,1.5943393 16.7325838,1.38939685 C16.643143,1.18394075 16.4831717,1.01341219 16.2531811,0.877811168 C16.0237016,0.742210145 15.7794004,0.684682438 15.5202777,0.704714408 C15.0613186,0.744778346 14.7137773,0.930202472 14.4791868,1.26150043 C14.2451075,1.5917711 14.1357342,2.15626172 14.1505558,2.95394501 C14.1653774,3.75111466 14.1132462,4.75374041 13.9926289,5.96182225 C13.8730338,7.17093137 13.7135736,8.35435848 13.5137373,9.51261722 C13.3139011,10.670876 12.8948071,12.0001769 12.2564553,13.4994928 C11.6170814,14.9988086 11.0507934,16.183263 10.5570802,17.0502877 C10.0633671,17.9173124 9.36470668,18.92302 8.46109912,20.0663832 C7.55749155,21.2097464 6.56495428,22.1851492 5.48195404,22.9925916 C4.39946489,23.8000341 3.37932874,24.4795801 2.42103452,25.0312298 C1.4627403,25.5818521 0.918429182,25.9342093 0.789634439,26.0841922 C0.529489501,26.3846718 0.407850021,26.7560337 0.422671638,27.1972506 C0.437493255,27.6384676 0.596953414,27.921997 0.902074294,28.0478389 C1.20668408,28.1721398 1.48318391,28.2255584 1.73259595,28.2060401 C2.46141065,28.1551897 4.0054143,27.3179561 6.36562908,25.6922847 C8.72584387,24.0681543 10.4671284,22.3407822 11.5899936,20.5101684 C12.7123478,18.6800682 13.5065821,17.2485529 13.9696298,16.2156223 C14.1398229,15.8370695 14.3263708,15.4097208 14.5210962,14.9592583 L16.7765375,14.9592583 C17.3464031,16.2690409 17.7568086,17.1663704 18.0046874,17.6450831 C18.3936271,18.3975661 18.9752478,19.3796462 19.7485273,20.5933781 C20.5218069,21.80711 21.3272851,22.8944864 22.1659842,23.8575618 C23.0041722,24.8206373 24.0943277,25.9491049 25.4369618,27.2429646 C26.7785737,28.5368244 27.8595296,29.1824702 28.6777851,29.1824702 C29.0667248,29.1932566 29.3708235,29.0751194 29.5911034,28.8295993 C29.8103611,28.5835656 29.9350671,28.330341 29.9647104,28.0694118 C30.0045754,27.5984037 29.8599369,27.2131735 29.5307947,26.9116667 C29.2016526,26.6106735 28.6926067,26.1915431 28.0041682,25.6553026 Z" id="Path"></path>
                        <path d="M58.9159288,18.0056586 L57.2237089,18.0056586 L57.2237089,16.2906138 C57.2237089,15.839124 57.1066693,15.3824979 56.873101,14.9212489 C56.6390217,14.46 56.3160127,14.1918798 55.9030517,14.1168883 C55.4890686,14.0413832 54.9698009,14.0038875 54.3432043,14.0038875 L47.0739676,14.0038875 L47.0739676,12.0926321 L54.5149306,12.0926321 C55.5805538,12.0926321 56.2362826,11.9246718 56.4826281,11.5887511 C56.7294847,11.2518031 56.8925225,10.9523508 56.9707193,10.6898806 C57.0489161,10.4274105 57.0887811,10.1279582 57.0887811,9.79101023 L57.0887811,8.51461424 C57.0887811,8.12835678 56.997296,7.66299872 56.8148367,7.11854007 C56.6328886,6.57356777 55.8805638,6.30133845 54.5593955,6.30133845 L47.0739676,6.30133845 L47.0739676,4.69158994 L58.5412996,4.69158994 C58.8300656,4.69158994 59.0825442,4.58834825 59.2972021,4.38289216 C59.51186,4.17743606 59.6161224,3.93653879 59.6110115,3.66020034 C59.6059006,3.38488917 59.4980606,3.14964194 59.2890246,2.95394501 C59.0794776,2.75824808 58.8300656,2.6601428 58.5407885,2.6601428 L47.0734565,2.6601428 L47.0734565,1.95337383 C47.0734565,1.63183504 46.9497727,1.35652387 46.7018939,1.1258994 C46.4550373,0.894761296 46.158605,0.794601449 45.8156634,0.824392583 C45.4722108,0.854697357 45.196222,0.982593777 44.9892305,1.20808184 C44.7822389,1.43408355 44.6789987,1.68268542 44.6789987,1.95337383 L44.6789987,2.6601428 L33.1820235,2.6601428 C32.8533925,2.6601428 32.5835368,2.75002984 32.3739898,2.93031756 C32.1644428,3.11163257 32.0494475,3.32684783 32.029515,3.57750426 C31.9993607,3.86873828 32.0964678,4.12658568 32.3218586,4.35207374 C32.5457161,4.57756181 32.8334599,4.6910763 33.1820235,4.6910763 L44.6789987,4.6910763 L44.6789987,6.30082481 L36.701391,6.30082481 C35.9127787,6.30082481 35.3863558,6.40971654 35.1221221,6.6275 C34.8568663,6.84528346 34.6606076,7.11032182 34.5307907,7.42210145 C34.4004627,7.73388107 34.3360653,8.07339727 34.3360653,8.43910912 L34.3360653,9.78998295 C34.3360653,10.196786 34.3979072,10.5650661 34.5226132,10.8968777 C34.6468082,11.2286893 34.8767988,11.5101641 35.2115629,11.7428431 C35.5453048,11.9765494 36.2868968,12.0916049 37.4342944,12.0916049 L44.680532,12.0916049 L44.680532,14.0028602 L35.0848125,14.0028602 C34.7357379,14.0028602 34.4515717,14.1225384 34.2318029,14.3639493 C34.0120341,14.6048465 33.9225933,14.855503 33.9624583,15.1154049 C34.0018123,15.3773615 34.1219185,15.5823039 34.3217548,15.7322869 C34.5215911,15.8822698 34.776114,15.9577749 35.0848125,15.9577749 L44.680532,15.9577749 L44.680532,18.0046313 L32.8988795,18.0046313 C32.6489564,18.0046313 32.4296987,18.0816773 32.2400842,18.2373103 C32.0504697,18.3929433 31.9410964,18.5912084 31.910431,18.8310784 C31.8608552,19.1418308 31.9329189,19.4130328 32.1276443,19.6436573 C32.3228808,19.8742818 32.578937,19.9898508 32.8988795,19.9898508 L44.6800209,19.9898508 L44.6800209,22.2169949 L34.7551593,22.2169949 C34.5256798,22.2169949 34.3278878,22.2801726 34.1638279,22.4049872 C33.9997679,22.5298018 33.8970388,22.6962212 33.8566626,22.9001364 C33.7968651,23.1800703 33.8592181,23.4230222 34.0437217,23.633101 C34.2277142,23.841639 34.4653711,23.9464216 34.7551593,23.9464216 L44.6800209,23.9464216 L44.6800209,25.1349851 C44.6800209,25.5053197 44.6595773,25.7888491 44.6202233,25.984546 C44.5803583,26.180243 44.465363,26.3687489 44.2757485,26.548523 C43.8167895,26.9799808 43.0578204,27.0934953 42.0003747,26.8875256 C40.942929,26.6815558 40.3239987,26.568555 40.144606,26.548523 C39.4055695,26.4884271 38.9992527,26.7149425 38.9241225,27.2255009 C38.8489922,27.7370865 38.915945,28.1053666 39.1265142,28.3313683 C39.3360612,28.5563427 39.7127347,28.7381714 40.2565348,28.8727451 C40.7998237,29.0093734 41.4320423,29.081283 42.1501241,29.0915558 C43.3174543,29.1218606 44.3248132,29.0237553 45.1701564,28.7977536 C46.0154997,28.5722656 46.543967,28.1377259 46.7565806,27.4967029 C46.9691941,26.8556799 47.0749898,26.2886211 47.0749898,25.7970673 L47.0749898,23.9459079 L54.7173223,23.9459079 C55.1645263,23.9459079 55.5805538,23.8842711 55.9633604,23.7584292 C56.346167,23.6325874 56.6073341,23.4877408 56.7463506,23.3213214 C56.8853672,23.1564429 56.9998514,22.9304412 57.0892922,22.6448572 C57.1792441,22.3587596 57.22422,21.9452792 57.22422,21.4033887 L57.22422,19.9893372 L58.9164399,19.9893372 C59.1954951,19.9893372 59.438263,19.8845546 59.642188,19.6739621 C59.8466241,19.4633696 59.9391314,19.2199041 59.9186878,18.9440793 C59.8992664,18.6687681 59.7888709,18.4422528 59.5895457,18.2671014 C59.3897094,18.093491 59.1658519,18.0056586 58.9159288,18.0056586 Z M47.0744787,8.03076513 L53.9634642,8.03076513 C54.460755,8.03076513 54.7418547,8.13862958 54.8062521,8.35230392 C54.8706494,8.5664919 54.9028481,8.76167519 54.9028481,8.93888107 L54.9028481,9.54908568 C54.9028481,9.7791965 54.8558278,9.97181159 54.7617872,10.1284719 C54.6667244,10.2846185 54.3718253,10.3632055 53.8745345,10.3632055 L47.0739676,10.3632055 L47.0739676,8.03076513 L47.0744787,8.03076513 Z M44.6800209,10.3632055 L37.3852297,10.3632055 L37.3852297,8.03076513 L37.5022694,8.03076513 L44.6800209,8.03076513 L44.6800209,10.3632055 Z M55.0387981,21.0166176 C55.0387981,21.3694885 54.9841115,21.6576407 54.8747381,21.8815878 C54.7653648,22.1065622 54.4326451,22.2185358 53.8750456,22.2185358 L47.0744787,22.2185358 L47.0744787,19.9913917 L55.0387981,19.9913917 L55.0387981,21.0166176 Z M55.0387981,18.0056586 L47.0744787,18.0056586 L47.0744787,15.9588022 L53.9941296,15.9588022 C54.4423558,15.9588022 54.7275442,16.0599893 54.8522502,16.260309 C54.9764451,16.4611424 55.0387981,16.6963896 55.0387981,16.967078 L55.0387981,18.0056586 Z" id="Shape" fill-rule="nonzero"></path>
                        <path d="M67.8743187,12.5893223 L84.7464301,12.5893223 C86.2991223,12.5893223 87.2175515,12.1963875 87.5017176,11.4100043 C87.7853727,10.6241347 87.9269447,10.0257438 87.9269447,9.61483163 L87.9269447,4.13120844 C87.9269447,3.24980179 87.628468,2.54611466 87.0310035,2.01963342 C86.4340501,1.49469309 85.6331717,1.23170929 84.6273461,1.23170929 L68.0250903,1.23170929 C67.6458614,1.24146846 67.1281269,1.3313555 66.471887,1.50188406 C65.8151361,1.67241262 65.361799,2.05867008 65.1128981,2.66065644 C64.8650193,3.2626428 64.7403133,3.81377877 64.7403133,4.31509165 L64.7403133,9.61123615 C64.7403133,10.6143755 65.0209018,11.3617221 65.5831011,11.8527621 C66.1447893,12.3443159 66.9088692,12.5893223 67.8743187,12.5893223 Z M85.7415228,9.17464194 C85.7415228,9.54600384 85.6505487,9.86856991 85.470645,10.1443947 C85.2902301,10.4207332 84.8282045,10.5578751 84.0855904,10.5578751 L68.5504911,10.5578751 C68.2596807,10.5578751 68.0220238,10.5357886 67.8262762,10.4957246 L67.8262762,7.86485934 L85.7420339,7.86485934 L85.7420339,9.17464194 L85.7415228,9.17464194 Z M68.5050041,3.2626428 L84.0999009,3.2626428 C84.853759,3.2626428 85.3147624,3.41827579 85.4854666,3.73056905 C85.6561707,4.04286232 85.7415228,4.35823743 85.7415228,4.67463981 L85.7415228,5.66956095 L67.8257651,5.66956095 L67.8257651,3.32222506 C68.0179351,3.28627025 68.2351484,3.2626428 68.5050041,3.2626428 Z" id="Shape" fill-rule="nonzero"></path>
                        <path d="M90.5089727,26.6574147 C90.2743822,26.4858589 90.0673907,26.400081 89.8874869,26.400081 L78.1513215,26.400081 L78.1513215,22.984887 L87.4030772,22.984887 C87.6422675,22.984887 87.8748135,22.8836999 88.098671,22.6792711 C88.3235508,22.4758696 88.4283243,22.2062084 88.4129916,21.871315 C88.3976588,21.5364216 88.2811303,21.2724105 88.0613615,21.0787681 C87.8415927,20.8856394 87.6223349,20.7885614 87.4030772,20.7885614 L78.1513215,20.7885614 L78.1513215,17.7642477 L87.8819688,17.7642477 C88.121159,17.7642477 88.3710822,17.6676833 88.6302049,17.4719864 C88.8898388,17.2762894 88.9997232,17.0333376 88.9598581,16.7426172 C88.9199931,16.4513832 88.8101087,16.2084314 88.6302049,16.0127344 C88.4508122,15.8170375 88.2014002,15.7199595 87.8819688,15.7199595 L78.1513215,15.7199595 L78.1513215,13.9895055 C78.1513215,13.8184633 78.0767023,13.5904071 77.9300194,13.3048231 C77.7823143,13.0187255 77.5180807,12.8785017 77.1368073,12.8836381 C76.7560451,12.8882609 76.4657458,13.0063981 76.2659095,13.2370226 C76.0660733,13.4681607 75.9658996,13.7188171 75.9658996,13.9895055 L75.9658996,15.7199595 L68.136508,15.7199595 L68.4661612,14.8919714 C68.5862674,14.6120375 68.6465761,14.3202899 68.6465761,14.0192967 C68.6363543,13.7691539 68.5586685,13.5364749 68.4145411,13.3197187 C68.2693915,13.1045034 68.0419563,12.9868798 67.7337689,12.9663342 C67.2942313,12.9463022 66.9921769,13.0916624 66.828117,13.4024147 C66.6635459,13.7131671 66.4979526,14.0701471 66.3333816,14.4702728 C66.1693216,14.8719395 65.8841333,15.4785486 65.480883,16.2911275 C65.0760996,17.1031927 64.6294067,17.8705712 64.1408044,18.5927494 L63.0782478,20.1418883 C62.8487683,20.5132502 62.7337729,20.814757 62.7337729,21.0453815 C62.7230401,21.3556202 62.9632525,21.7624233 63.4518547,22.2637361 C63.9409681,22.765049 64.551721,22.3793052 65.2856466,21.1049638 C66.0190611,19.8316496 66.6701901,18.7185912 67.2385224,17.7642477 L75.9664107,17.7642477 L75.9664107,20.7885614 L66.460132,20.7885614 C66.2710286,20.7885614 66.0384825,20.8784484 65.7645381,21.0561679 C65.4900827,21.2338875 65.3807094,21.5184442 65.435396,21.9113789 C65.4895716,22.3032864 65.616322,22.5801385 65.8161583,22.7424488 C66.0159945,22.9042455 66.2311635,22.9854007 66.460132,22.9854007 L75.9664107,22.9854007 L75.9664107,26.4005946 L63.226975,26.4005946 C63.0470713,26.4005946 62.8400797,26.4704497 62.6054893,26.6096462 C62.37141,26.7483291 62.2390376,27.0149084 62.2088833,27.4104113 C62.1889507,27.7524957 62.2835024,28.0365388 62.4940716,28.2609996 C62.7031075,28.4854604 62.9479198,28.5969203 63.2274861,28.5969203 L89.887998,28.5969203 C90.1476319,28.5969203 90.3771114,28.4900831 90.5764366,28.2758951 C90.7772951,28.0622208 90.8738911,27.7822869 90.8687802,27.4345524 C90.8626471,27.0873316 90.743052,26.8279433 90.5089727,26.6574147 Z" id="Path"></path>
                        <path d="M115.403157,3.31452046 C115.837072,3.67098679 116.258722,4.07470801 116.668616,4.52619778 C117.077488,4.97717391 117.381587,5.24323956 117.581423,5.32336743 C117.831346,5.43328645 118.084847,5.44920929 118.344992,5.36856777 C118.604115,5.28792626 118.791174,5.13537511 118.906169,4.90988704 C119.021165,4.68388534 119.048763,4.37313299 118.988966,3.97660273 C118.929168,3.5805861 118.529496,3.06694587 117.791481,2.43414109 C117.052445,1.80287724 116.523978,1.41148338 116.204035,1.26150043 C115.885115,1.11151748 115.61577,1.02573956 115.396512,1.00519395 C115.116435,0.995434783 114.886955,1.05604433 114.707563,1.18599531 C114.527659,1.31594629 114.422886,1.46182012 114.393242,1.62207587 C114.333445,1.89327792 114.378421,2.15420716 114.52817,2.40434996 C114.676897,2.65500639 114.969241,2.95959506 115.403157,3.31452046 Z" id="Path"></path>
                        <path d="M117.970874,8.85104859 C117.670353,8.9558312 117.264036,9.45765772 116.750391,10.3549872 C116.235723,11.2528303 115.605548,12.1106095 114.85629,12.9278112 C114.108054,13.7450128 113.728825,14.3089898 113.718603,14.6192285 C113.69816,14.9607992 113.811111,15.2515196 114.055412,15.4924169 C114.300224,15.7328005 114.646743,15.7882737 115.09548,15.6572954 C115.355625,15.5874403 115.799252,15.2011829 116.427382,14.4990367 C117.056023,13.7974041 117.44854,13.3382097 117.602889,13.1219672 C117.757749,12.9072656 118.179399,12.2626471 118.867326,11.1896526 C119.247066,10.5974254 119.421859,10.1243627 119.391705,9.76738278 C119.362062,9.41143009 119.191869,9.14279625 118.883681,8.96250853 C118.574472,8.78324808 118.269862,8.74575234 117.970874,8.85104859 Z" id="Path"></path>
                        <path d="M121.578149,24.5273487 C121.498419,24.2109463 121.153433,23.8318798 120.545236,23.3911765 L118.853527,22.2925 C118.046004,21.741364 117.256881,21.0469224 116.488712,20.2086616 C115.720033,19.371428 115.064304,18.5896675 114.519993,17.8628666 C113.976193,17.135552 113.57192,16.4929881 113.307176,15.9367157 C113.042431,15.3804433 112.781264,14.7460976 112.521119,14.033165 L112.521119,8.04617434 L120.066855,8.04617434 C120.375554,8.05644714 120.632121,7.92957801 120.837579,7.6665942 C121.041504,7.40309676 121.136567,7.1508994 121.121745,6.90794757 C121.107435,6.66550938 120.994484,6.42820759 120.785448,6.19706948 C120.575901,5.96541773 120.3362,5.8488214 120.067366,5.8488214 L112.52163,5.8488214 L112.52163,1.33597826 C112.52163,1.09508099 112.413279,0.864456522 112.197599,0.644104859 C111.980385,0.423753197 111.718196,0.297911338 111.408986,0.268120205 C111.038446,0.248088235 110.731792,0.348248082 110.489535,0.568599744 C110.247789,0.788951407 110.126661,1.04474425 110.126661,1.33597826 L110.126661,5.8488214 L103.211099,5.8488214 C102.931021,5.8488214 102.689276,5.95257673 102.485351,6.16008738 C102.279892,6.36605712 102.177674,6.61363171 102.177674,6.90024297 C102.167452,7.21767263 102.267626,7.48887468 102.477173,7.71179454 C102.686209,7.93471441 102.931021,8.04617434 103.211099,8.04617434 L110.126661,8.04617434 L110.126661,25.9188001 C110.126661,26.4802089 110.066863,26.8407843 109.946246,27.0010401 C109.827162,27.1618095 109.65748,27.2768649 109.438222,27.3472336 C109.217942,27.4176023 108.659832,27.3821611 107.761335,27.242451 C106.86335,27.1022272 106.378836,27.0323721 106.308817,27.0323721 C106.059916,27.0621633 105.829925,27.1623231 105.620378,27.332338 C105.41032,27.5028666 105.295836,27.7083227 105.275903,27.9492199 C105.205884,28.7417668 105.795171,29.2102067 107.042742,29.3560806 C108.289803,29.5009271 109.223564,29.5635912 109.841984,29.5440729 C110.979159,29.5235273 111.671176,29.3134484 111.919054,28.9112681 C112.165911,28.5111424 112.327927,28.0637617 112.405101,27.5732353 C112.481765,27.0821952 112.521119,26.6152962 112.521119,26.1745929 L112.521119,18.8182374 L113.075141,19.5393883 L114.153541,20.9688491 C114.861401,21.8312511 115.929069,22.8518542 117.356544,24.0306586 C118.783508,25.2089493 119.752024,25.7852536 120.261069,25.7600853 C120.770115,25.7349169 121.136567,25.6023977 121.361447,25.3615004 C121.585815,25.1211168 121.657879,24.8427238 121.578149,24.5273487 Z" id="Path"></path>
                        <path d="M106.107447,13.1913086 C106.590427,13.9140004 106.968123,14.3973359 107.237468,14.6433696 C107.506301,14.8894032 107.780757,15.0116496 108.060323,15.0116496 C108.369533,15.0219224 108.613834,14.9145716 108.794249,14.6880563 C108.973641,14.4625682 109.03855,14.174416 108.989485,13.8230861 C108.848935,13.0310529 108.357778,12.1404007 107.514479,11.1531841 C106.67118,10.165454 106.097225,9.53573103 105.792616,9.26504263 C105.488006,8.99384058 105.185951,8.82896206 104.887475,8.76835251 C104.5476,8.70825661 104.276211,8.76064791 104.071775,8.92655371 C103.866827,9.09194587 103.762565,9.30767477 103.757454,9.57322677 C103.751832,9.83877877 103.81163,10.0827579 103.937358,10.3025959 C104.061553,10.5234612 104.333964,10.8794139 104.753058,11.3709676 C105.172152,11.8625213 105.622934,12.4691304 106.107447,13.1913086 Z" id="Path"></path>
                        <path d="M103.210588,20.4577771 C103.249942,20.1167199 103.130858,19.791072 102.851802,19.4798061 C102.571214,19.1695673 102.129632,19.2368542 101.526545,19.6832076 C100.921925,20.129561 100.151712,20.6488512 99.2133508,21.2405648 L99.2133508,14.1548977 L101.503546,14.1548977 C101.733537,14.1548977 101.945128,14.0567924 102.139854,13.8626364 C102.33509,13.6684804 102.436797,13.4173103 102.447019,13.112208 C102.447019,12.7958056 102.344801,12.5276854 102.139854,12.3063065 C101.934906,12.0844139 101.722804,11.9693585 101.503546,11.9590857 L99.2133508,11.9590857 L99.2133508,4.75271313 L101.968638,4.75271313 C102.247694,4.75271313 102.491484,4.6412532 102.701542,4.41833333 C102.9116,4.19541347 103.008707,3.93294331 102.993885,3.63040921 C102.979064,3.32838875 102.868668,3.07310955 102.664232,2.86713981 C102.459796,2.65962916 102.227761,2.55638747 101.968638,2.55638747 L94.1540683,2.55638747 C93.8847238,2.55638747 93.6475779,2.6601428 93.4426307,2.86713981 C93.2387057,3.07310955 93.1313768,3.32068414 93.121155,3.6072954 C93.1012224,3.92472506 93.1937298,4.19592711 93.3976548,4.41884697 C93.6015798,4.64176684 93.8545695,4.75322677 94.1535573,4.75322677 L96.8183818,4.75322677 L96.8183818,11.9595993 L94.2435091,11.9595993 C93.9342995,11.9595993 93.6751768,12.0664365 93.4656298,12.2811381 C93.2560828,12.4948124 93.1533536,12.7593372 93.1584645,13.0731714 C93.1635754,13.3875192 93.2678379,13.6484484 93.472274,13.8575 C93.676199,14.0670652 93.9337885,14.1656841 94.2435091,14.1564386 L96.8183818,14.1564386 L96.8183818,22.6566709 C95.5810323,23.2180797 94.6978684,23.5986871 94.1683789,23.7995205 C93.6394005,24.0008674 93.2601715,24.2083781 93.0312031,24.424107 C92.8007014,24.6398359 92.6862171,24.878165 92.6862171,25.1390942 C92.6862171,25.3887234 92.7838354,25.6126705 92.9780497,25.8083674 C93.172264,26.0035507 93.4646076,26.0893286 93.8535473,26.0641603 C94.2429981,26.0384783 95.103674,25.7184804 96.4360863,25.1021121 C97.7690097,24.4847165 98.7738131,23.9654263 99.452541,23.5442413 C100.130758,23.1240835 100.909659,22.609416 101.787201,22.0028069 C102.666276,21.3926023 103.141079,20.8789621 103.210588,20.4577771 Z" id="Path"></path>
                        <path d="M109.355426,18.0056586 C109.609949,17.5141049 109.742321,17.1386338 109.752543,16.877191 C109.752543,16.545893 109.590016,16.2402771 109.265474,15.9588022 C108.941443,15.6788683 108.599523,15.7209868 108.240227,16.0872123 C107.881441,16.4529241 107.586542,16.7867903 107.356552,17.0877835 L105.979675,18.8624105 C105.460918,19.494188 104.867031,20.1465111 104.199036,20.8188662 C103.529508,21.4912212 102.887067,22.0968031 102.267626,22.6386935 C101.648185,23.1816113 101.242379,23.5473231 101.047143,23.73737 C100.852417,23.9279305 100.735889,24.1231138 100.696024,24.3244608 C100.596361,24.7656777 100.682735,25.0969757 100.957191,25.3173274 C101.231646,25.537679 101.588387,25.5936658 102.028436,25.4832332 C102.177674,25.4529284 102.422486,25.3373593 102.761339,25.1370396 C103.100703,24.9362063 103.794253,24.3301108 104.842499,23.3166986 C105.890234,22.3038001 106.840351,21.2878197 107.694382,20.2702984 C108.547903,19.2517498 109.101414,18.4966986 109.355426,18.0056586 Z" id="Path"></path>
                    </g>
                </g>
            </g>
        </g>
    </g>
</svg>